<svg width="16" height="16" viewBox="0 0 16 16" fill="none" xmlns="http://www.w3.org/2000/svg">
<path d="M13.9647 5.53664C13.9573 5.03197 13.864 4.5313 13.6853 4.0593C13.3727 3.2533 12.736 2.61597 11.93 2.30397C11.464 2.12864 10.9713 2.03464 10.4727 2.02397C9.83133 1.9953 9.628 1.9873 8 1.9873C6.372 1.9873 6.16333 1.9873 5.52667 2.02397C5.02867 2.03464 4.536 2.12864 4.07 2.30397C3.264 2.61597 2.62667 3.2533 2.31467 4.0593C2.13933 4.5253 2.04467 5.01797 2.03533 5.51597C2.00667 6.15797 1.998 6.3613 1.998 7.9893C1.998 9.6173 1.998 9.8253 2.03533 10.4626C2.04533 10.9613 2.13933 11.4533 2.31467 11.9206C2.62733 12.726 3.264 13.3633 4.07067 13.6753C4.53467 13.8566 5.02733 13.9593 5.52733 13.9753C6.16933 14.004 6.37267 14.0126 8.00067 14.0126C9.62867 14.0126 9.83733 14.0126 10.474 13.9753C10.972 13.9653 11.4647 13.8713 11.9313 13.696C12.7373 13.3833 13.374 12.746 13.6867 11.9406C13.862 11.474 13.956 10.982 13.966 10.4826C13.9947 9.8413 14.0033 9.63797 14.0033 8.0093C14.002 6.3813 14.002 6.17464 13.9647 5.53664ZM7.996 11.068C6.29333 11.068 4.914 9.68864 4.914 7.98597C4.914 6.2833 6.29333 4.90397 7.996 4.90397C9.69733 4.90397 11.078 6.2833 11.078 7.98597C11.078 9.68864 9.69733 11.068 7.996 11.068ZM11.2007 5.50864C10.8027 5.50864 10.482 5.1873 10.482 4.78997C10.482 4.39264 10.8027 4.0713 11.2007 4.0713C11.5973 4.0713 11.9187 4.39264 11.9187 4.78997C11.9187 5.1873 11.5973 5.50864 11.2007 5.50864Z" fill="#D0BC7A"/>
<path d="M7.996 9.98801C9.10168 9.98801 9.998 9.09168 9.998 7.98601C9.998 6.88033 9.10168 5.98401 7.996 5.98401C6.89033 5.98401 5.994 6.88033 5.994 7.98601C5.994 9.09168 6.89033 9.98801 7.996 9.98801Z" fill="#D0BC7A"/>
</svg>
